<svg width="191" height="49" viewBox="0 0 191 49" fill="none" xmlns="http://www.w3.org/2000/svg">
<path d="M18.458 11.584H24.8301V37.1211C24.8301 39.5299 24.293 41.5726 23.2188 43.249C22.1608 44.9417 20.6797 46.2194 18.7754 47.082C16.8711 47.9609 14.6576 48.4004 12.1348 48.4004C11.028 48.4004 9.85612 48.2539 8.61914 47.9609C7.39844 47.668 6.22656 47.2122 5.10352 46.5938C3.99674 45.9753 3.06901 45.194 2.32031 44.25L5.4209 40.0996C6.2347 41.0436 7.17871 41.776 8.25293 42.2969C9.32715 42.834 10.5153 43.1025 11.8174 43.1025C13.0869 43.1025 14.1611 42.8665 15.04 42.3945C15.9189 41.9388 16.5944 41.2633 17.0664 40.3682C17.5384 39.4893 17.7744 38.4232 17.7744 37.1699V17.6875L18.458 11.584ZM0.68457 25.1094V24.5967C0.68457 22.5785 0.928711 20.7474 1.41699 19.1035C1.92155 17.4434 2.62956 16.0192 3.54102 14.8311C4.46875 13.6429 5.5918 12.7233 6.91016 12.0723C8.22852 11.4212 9.71777 11.0957 11.3779 11.0957C13.1357 11.0957 14.6087 11.4212 15.7969 12.0723C16.985 12.7233 17.9616 13.651 18.7266 14.8555C19.4915 16.0436 20.0856 17.4515 20.5088 19.0791C20.9482 20.6904 21.29 22.4564 21.5342 24.377V25.5C21.29 27.3392 20.9238 29.0482 20.4355 30.627C19.9473 32.2057 19.3044 33.5892 18.5068 34.7773C17.7093 35.9492 16.7165 36.8607 15.5283 37.5117C14.3564 38.1628 12.9567 38.4883 11.3291 38.4883C9.7015 38.4883 8.22852 38.1546 6.91016 37.4873C5.60807 36.82 4.49316 35.8841 3.56543 34.6797C2.6377 33.4753 1.92155 32.0592 1.41699 30.4316C0.928711 28.804 0.68457 27.0299 0.68457 25.1094ZM7.71582 24.5967V25.1094C7.71582 26.1999 7.82161 27.2171 8.0332 28.1611C8.24479 29.1051 8.57031 29.9434 9.00977 30.6758C9.46549 31.3919 10.027 31.9535 10.6943 32.3604C11.3779 32.751 12.1836 32.9463 13.1113 32.9463C14.3971 32.9463 15.4469 32.6777 16.2607 32.1406C17.0745 31.5872 17.6849 30.8304 18.0918 29.8701C18.4987 28.9098 18.7347 27.8031 18.7998 26.5498V23.3516C18.7673 22.3262 18.6289 21.4066 18.3848 20.5928C18.1406 19.7627 17.7988 19.0547 17.3594 18.4688C16.9199 17.8828 16.3503 17.4271 15.6504 17.1016C14.9505 16.776 14.1204 16.6133 13.1602 16.6133C12.2324 16.6133 11.4268 16.8249 10.7432 17.248C10.0758 17.6549 9.51432 18.2165 9.05859 18.9326C8.61914 19.6488 8.28548 20.4951 8.05762 21.4717C7.82975 22.432 7.71582 23.4736 7.71582 24.5967ZM38.2207 11.584V38H31.165V11.584H38.2207ZM30.7256 4.69922C30.7256 3.67383 31.0837 2.82747 31.7998 2.16016C32.516 1.49284 33.4762 1.15918 34.6807 1.15918C35.8688 1.15918 36.821 1.49284 37.5371 2.16016C38.2695 2.82747 38.6357 3.67383 38.6357 4.69922C38.6357 5.72461 38.2695 6.57096 37.5371 7.23828C36.821 7.9056 35.8688 8.23926 34.6807 8.23926C33.4762 8.23926 32.516 7.9056 31.7998 7.23828C31.0837 6.57096 30.7256 5.72461 30.7256 4.69922ZM57.4707 11.584V16.5645H42.0898V11.584H57.4707ZM45.8984 5.06543H52.9297V30.041C52.9297 30.806 53.0273 31.3919 53.2227 31.7988C53.4342 32.2057 53.7435 32.4906 54.1504 32.6533C54.5573 32.7998 55.07 32.873 55.6885 32.873C56.1279 32.873 56.5186 32.8568 56.8604 32.8242C57.2184 32.7754 57.5195 32.7266 57.7637 32.6777L57.7881 37.8535C57.1859 38.0488 56.5348 38.2035 55.835 38.3174C55.1351 38.4313 54.362 38.4883 53.5156 38.4883C51.9694 38.4883 50.6185 38.236 49.4629 37.7314C48.3236 37.2106 47.4447 36.3805 46.8262 35.2412C46.2077 34.1019 45.8984 32.6045 45.8984 30.749V5.06543ZM72.8877 32.9951C73.7503 32.9951 74.5153 32.8324 75.1826 32.5068C75.8499 32.165 76.3708 31.693 76.7451 31.0908C77.1357 30.4723 77.3392 29.748 77.3555 28.918H83.9717C83.9554 30.7734 83.459 32.4255 82.4824 33.874C81.5059 35.3063 80.1956 36.4375 78.5518 37.2676C76.9079 38.0814 75.0687 38.4883 73.0342 38.4883C70.9834 38.4883 69.193 38.1465 67.6631 37.4629C66.1494 36.7793 64.888 35.8353 63.8789 34.6309C62.8698 33.4102 62.113 31.9941 61.6084 30.3828C61.1038 28.7552 60.8516 27.0137 60.8516 25.1582V24.4502C60.8516 22.5785 61.1038 20.8369 61.6084 19.2256C62.113 17.598 62.8698 16.182 63.8789 14.9775C64.888 13.7568 66.1494 12.8047 67.6631 12.1211C69.1768 11.4375 70.9508 11.0957 72.9854 11.0957C75.1501 11.0957 77.0462 11.5107 78.6738 12.3408C80.3177 13.1709 81.6035 14.359 82.5312 15.9053C83.4753 17.4352 83.9554 19.25 83.9717 21.3496H77.3555C77.3392 20.4707 77.152 19.6732 76.7939 18.957C76.4521 18.2409 75.9476 17.6712 75.2803 17.248C74.6292 16.8086 73.8236 16.5889 72.8633 16.5889C71.8379 16.5889 70.9997 16.8086 70.3486 17.248C69.6976 17.6712 69.193 18.2572 68.835 19.0059C68.4769 19.7383 68.2246 20.5765 68.0781 21.5205C67.9479 22.4482 67.8828 23.4248 67.8828 24.4502V25.1582C67.8828 26.1836 67.9479 27.1683 68.0781 28.1123C68.2083 29.0563 68.4525 29.8945 68.8105 30.627C69.1849 31.3594 69.6976 31.9372 70.3486 32.3604C70.9997 32.7835 71.846 32.9951 72.8877 32.9951ZM95.5801 17.3457V38H88.5488V11.584H95.165L95.5801 17.3457ZM103.539 11.4131L103.417 17.9316C103.075 17.8828 102.66 17.8421 102.172 17.8096C101.7 17.7607 101.269 17.7363 100.878 17.7363C99.8851 17.7363 99.0225 17.8665 98.29 18.127C97.5739 18.3711 96.9717 18.7373 96.4834 19.2256C96.0114 19.7139 95.6533 20.3079 95.4092 21.0078C95.1813 21.7077 95.0511 22.5052 95.0186 23.4004L93.6025 22.9609C93.6025 21.252 93.7734 19.6813 94.1152 18.249C94.457 16.8005 94.9535 15.5391 95.6045 14.4648C96.2718 13.3906 97.0856 12.5605 98.0459 11.9746C99.0062 11.3887 100.105 11.0957 101.342 11.0957C101.732 11.0957 102.131 11.1283 102.538 11.1934C102.945 11.2422 103.279 11.3154 103.539 11.4131ZM119.029 38.4883C116.979 38.4883 115.139 38.1628 113.512 37.5117C111.884 36.8444 110.501 35.9248 109.361 34.7529C108.238 33.5811 107.376 32.222 106.773 30.6758C106.171 29.1133 105.87 27.4531 105.87 25.6953V24.7188C105.87 22.7168 106.155 20.8857 106.725 19.2256C107.294 17.5654 108.108 16.125 109.166 14.9043C110.24 13.6836 111.542 12.7477 113.072 12.0967C114.602 11.4294 116.327 11.0957 118.248 11.0957C120.12 11.0957 121.78 11.4049 123.229 12.0234C124.677 12.6419 125.89 13.5208 126.866 14.6602C127.859 15.7995 128.608 17.1667 129.112 18.7617C129.617 20.3405 129.869 22.0983 129.869 24.0352V26.9648H108.873V22.2773H122.96V21.7402C122.96 20.7637 122.781 19.8929 122.423 19.1279C122.081 18.3467 121.56 17.7282 120.86 17.2725C120.16 16.8167 119.265 16.5889 118.175 16.5889C117.247 16.5889 116.45 16.7923 115.782 17.1992C115.115 17.6061 114.57 18.1758 114.146 18.9082C113.74 19.6406 113.43 20.5033 113.219 21.4961C113.023 22.4727 112.926 23.5469 112.926 24.7188V25.6953C112.926 26.7533 113.072 27.7298 113.365 28.625C113.674 29.5202 114.106 30.2933 114.659 30.9443C115.229 31.5954 115.912 32.0999 116.71 32.458C117.524 32.8161 118.443 32.9951 119.469 32.9951C120.738 32.9951 121.918 32.751 123.009 32.2627C124.116 31.7581 125.068 31.0013 125.865 29.9922L129.283 33.7031C128.73 34.5007 127.973 35.2656 127.013 35.998C126.069 36.7305 124.929 37.3327 123.595 37.8047C122.26 38.2604 120.738 38.4883 119.029 38.4883ZM149.974 32.2383V0.5H157.054V38H150.682L149.974 32.2383ZM133.274 25.1094V24.5967C133.274 22.5785 133.502 20.7474 133.958 19.1035C134.414 17.4434 135.081 16.0192 135.96 14.8311C136.839 13.6429 137.921 12.7233 139.207 12.0723C140.493 11.4212 141.958 11.0957 143.602 11.0957C145.148 11.0957 146.499 11.4212 147.654 12.0723C148.826 12.7233 149.819 13.651 150.633 14.8555C151.463 16.0436 152.13 17.4515 152.635 19.0791C153.139 20.6904 153.506 22.4564 153.733 24.377V25.5C153.506 27.3392 153.139 29.0482 152.635 30.627C152.13 32.2057 151.463 33.5892 150.633 34.7773C149.819 35.9492 148.826 36.8607 147.654 37.5117C146.482 38.1628 145.115 38.4883 143.553 38.4883C141.909 38.4883 140.444 38.1546 139.158 37.4873C137.889 36.82 136.814 35.8841 135.936 34.6797C135.073 33.4753 134.414 32.0592 133.958 30.4316C133.502 28.804 133.274 27.0299 133.274 25.1094ZM140.306 24.5967V25.1094C140.306 26.1999 140.387 27.2171 140.55 28.1611C140.729 29.1051 141.014 29.9434 141.404 30.6758C141.811 31.3919 142.332 31.9535 142.967 32.3604C143.618 32.751 144.407 32.9463 145.335 32.9463C146.539 32.9463 147.532 32.6777 148.313 32.1406C149.095 31.5872 149.689 30.8304 150.096 29.8701C150.519 28.9098 150.763 27.8031 150.828 26.5498V23.3516C150.779 22.3262 150.633 21.4066 150.389 20.5928C150.161 19.7627 149.819 19.0547 149.363 18.4688C148.924 17.8828 148.37 17.4271 147.703 17.1016C147.052 16.776 146.279 16.6133 145.384 16.6133C144.472 16.6133 143.691 16.8249 143.04 17.248C142.389 17.6549 141.86 18.2165 141.453 18.9326C141.062 19.6488 140.77 20.4951 140.574 21.4717C140.395 22.432 140.306 23.4736 140.306 24.5967ZM170.469 11.584V38H163.413V11.584H170.469ZM162.974 4.69922C162.974 3.67383 163.332 2.82747 164.048 2.16016C164.764 1.49284 165.724 1.15918 166.929 1.15918C168.117 1.15918 169.069 1.49284 169.785 2.16016C170.518 2.82747 170.884 3.67383 170.884 4.69922C170.884 5.72461 170.518 6.57096 169.785 7.23828C169.069 7.9056 168.117 8.23926 166.929 8.23926C165.724 8.23926 164.764 7.9056 164.048 7.23828C163.332 6.57096 162.974 5.72461 162.974 4.69922ZM189.719 11.584V16.5645H174.338V11.584H189.719ZM178.146 5.06543H185.178V30.041C185.178 30.806 185.275 31.3919 185.471 31.7988C185.682 32.2057 185.992 32.4906 186.398 32.6533C186.805 32.7998 187.318 32.873 187.937 32.873C188.376 32.873 188.767 32.8568 189.108 32.8242C189.466 32.7754 189.768 32.7266 190.012 32.6777L190.036 37.8535C189.434 38.0488 188.783 38.2035 188.083 38.3174C187.383 38.4313 186.61 38.4883 185.764 38.4883C184.217 38.4883 182.867 38.236 181.711 37.7314C180.572 37.2106 179.693 36.3805 179.074 35.2412C178.456 34.1019 178.146 32.6045 178.146 30.749V5.06543Z" fill="#F2F2F2"/>
<path d="M18.458 11.584V11.084H18.0109L17.9611 11.5283L18.458 11.584ZM24.8301 11.584H25.3301V11.084H24.8301V11.584ZM23.2188 43.249L22.7977 42.9792L22.7948 42.984L23.2188 43.249ZM18.7754 47.082L18.5691 46.6266L18.5659 46.6281L18.7754 47.082ZM8.61914 47.9609L8.50245 48.4471L8.50391 48.4475L8.61914 47.9609ZM5.10352 46.5938L4.8596 47.0302L4.86231 47.0317L5.10352 46.5938ZM2.32031 44.25L1.91975 43.9508L1.68938 44.2591L1.92856 44.5607L2.32031 44.25ZM5.4209 40.0996L5.7996 39.7731L5.39302 39.3015L5.02033 39.8004L5.4209 40.0996ZM8.25293 42.2969L8.47655 41.8496L8.47107 41.847L8.25293 42.2969ZM15.04 42.3945L14.8099 41.9506L14.8035 41.954L15.04 42.3945ZM17.0664 40.3682L16.6259 40.1316L16.6241 40.135L17.0664 40.3682ZM17.7744 17.6875L17.2775 17.6318L17.2744 17.6596V17.6875H17.7744ZM1.41699 19.1035L0.938589 18.9581L0.937689 18.9611L1.41699 19.1035ZM3.54102 14.8311L3.14691 14.5233L3.1443 14.5267L3.54102 14.8311ZM15.7969 12.0723L16.0371 11.6338L15.7969 12.0723ZM18.7266 14.8555L18.3045 15.1235L18.3062 15.1261L18.7266 14.8555ZM20.5088 19.0791L20.0248 19.2049L20.0264 19.2107L20.5088 19.0791ZM21.5342 24.377H22.0342V24.3453L22.0302 24.3139L21.5342 24.377ZM21.5342 25.5L22.0298 25.5658L22.0342 25.533V25.5H21.5342ZM18.5068 34.7773L18.9202 35.0587L18.922 35.056L18.5068 34.7773ZM15.5283 37.5117L15.288 37.0732L15.2855 37.0746L15.5283 37.5117ZM6.91016 37.4873L6.68211 37.9323L6.68435 37.9334L6.91016 37.4873ZM3.56543 34.6797L3.16932 34.9848L3.56543 34.6797ZM1.41699 30.4316L0.938059 30.5753L0.939414 30.5797L1.41699 30.4316ZM9.00977 30.6758L8.58087 30.9331L8.58793 30.9442L9.00977 30.6758ZM10.6943 32.3604L10.434 32.7873L10.4401 32.7909L10.4463 32.7945L10.6943 32.3604ZM16.2607 32.1406L16.5362 32.558L16.5419 32.5541L16.2607 32.1406ZM18.0918 29.8701L17.6314 29.675L18.0918 29.8701ZM18.7998 26.5498L19.2991 26.5757L19.2998 26.5628V26.5498H18.7998ZM18.7998 23.3516H19.2998V23.3436L19.2996 23.3357L18.7998 23.3516ZM18.3848 20.5928L17.9051 20.7339L17.9059 20.7364L18.3848 20.5928ZM15.6504 17.1016L15.8613 16.6482L15.6504 17.1016ZM10.7432 17.248L11.0035 17.675L11.0063 17.6732L10.7432 17.248ZM9.05859 18.9326L8.63671 18.6641L8.63243 18.6711L9.05859 18.9326ZM8.05762 21.4717L8.54411 21.5871L8.54454 21.5853L8.05762 21.4717ZM18.458 12.084H24.8301V11.084H18.458V12.084ZM24.3301 11.584V37.1211H25.3301V11.584H24.3301ZM24.3301 37.1211C24.3301 39.4546 23.8105 41.3988 22.7978 42.9793L23.6397 43.5188C24.7755 41.7463 25.3301 39.6053 25.3301 37.1211H24.3301ZM22.7948 42.984C21.7916 44.5891 20.3881 45.8026 18.5691 46.6266L18.9817 47.5375C20.9713 46.6362 22.53 45.2943 23.6427 43.514L22.7948 42.984ZM18.5659 46.6281C16.7392 47.4711 14.5996 47.9004 12.1348 47.9004V48.9004C14.7155 48.9004 17.003 48.4508 18.9849 47.536L18.5659 46.6281ZM12.1348 47.9004C11.072 47.9004 9.93905 47.7597 8.73437 47.4744L8.50391 48.4475C9.77319 48.7481 10.984 48.9004 12.1348 48.9004V47.9004ZM8.73583 47.4747C7.55952 47.1924 6.42944 46.7532 5.34472 46.1558L4.86231 47.0317C6.02368 47.6713 7.23735 48.1435 8.50245 48.4471L8.73583 47.4747ZM5.34743 46.1573C4.29465 45.569 3.41807 44.8295 2.71206 43.9393L1.92856 44.5607C2.71995 45.5585 3.69884 46.3816 4.8596 47.0302L5.34743 46.1573ZM2.72088 44.5492L5.82146 40.3989L5.02033 39.8004L1.91975 43.9508L2.72088 44.5492ZM5.04219 40.4261C5.89854 41.4194 6.89649 42.1949 8.03479 42.7468L8.47107 41.847C7.46093 41.3572 6.57086 40.6678 5.7996 39.7731L5.04219 40.4261ZM8.02932 42.7441C9.17869 43.3188 10.4443 43.6025 11.8174 43.6025V42.6025C10.5863 42.6025 9.47561 42.3492 8.47654 41.8497L8.02932 42.7441ZM11.8174 43.6025C13.1475 43.6025 14.3078 43.3553 15.2766 42.835L14.8035 41.954C14.0145 42.3778 13.0263 42.6025 11.8174 42.6025V43.6025ZM15.2702 42.8384C16.2418 42.3346 16.9902 41.5846 17.5087 40.6014L16.6241 40.135C16.1986 40.9421 15.5961 41.543 14.8099 41.9507L15.2702 42.8384ZM17.5069 40.6047C18.0267 39.6368 18.2744 38.485 18.2744 37.1699H17.2744C17.2744 38.3614 17.0501 39.3417 16.6259 40.1316L17.5069 40.6047ZM18.2744 37.1699V17.6875H17.2744V37.1699H18.2744ZM18.2713 17.7432L18.9549 11.6396L17.9611 11.5283L17.2775 17.6318L18.2713 17.7432ZM1.18457 25.1094V24.5967H0.18457V25.1094H1.18457ZM1.18457 24.5967C1.18457 22.6184 1.42391 20.8362 1.8963 19.2459L0.937689 18.9611C0.433508 20.6586 0.18457 22.5385 0.18457 24.5967H1.18457ZM1.89539 19.2489C2.38521 17.6372 3.06813 16.269 3.93773 15.1354L3.1443 14.5267C2.19099 15.7694 1.45789 17.2495 0.938599 18.9581L1.89539 19.2489ZM3.93511 15.1388C4.81778 14.0083 5.88233 13.1375 7.13155 12.5206L6.68877 11.624C5.30127 12.3091 4.11972 13.2775 3.14692 14.5233L3.93511 15.1388ZM7.13155 12.5206C8.37263 11.9077 9.78458 11.5957 11.3779 11.5957V10.5957C9.65097 10.5957 8.0844 10.9347 6.68877 11.624L7.13155 12.5206ZM11.3779 11.5957C13.076 11.5957 14.4608 11.9103 15.5566 12.5108L16.0371 11.6338C14.7566 10.9321 13.1955 10.5957 11.3779 10.5957V11.5957ZM15.5566 12.5108C16.6668 13.1191 17.5823 13.9864 18.3045 15.1235L19.1486 14.5874C18.3409 13.3157 17.3033 12.3275 16.0371 11.6338L15.5566 12.5108ZM18.3062 15.1261C19.0376 16.2621 19.6126 17.6192 20.0249 19.2049L20.9927 18.9533C20.5586 17.2838 19.9455 15.8251 19.147 14.5848L18.3062 15.1261ZM20.0264 19.2107C20.4589 20.7963 20.7965 22.539 21.0382 24.44L22.0302 24.3139C21.7836 22.3738 21.4376 20.5846 20.9912 18.9475L20.0264 19.2107ZM21.0342 24.377V25.5H22.0342V24.377H21.0342ZM21.0385 25.4342C20.7976 27.249 20.4369 28.9302 19.9579 30.4792L20.9132 30.7747C21.4107 29.1661 21.7824 27.4294 22.0298 25.5658L21.0385 25.4342ZM19.9579 30.4792C19.4818 32.0186 18.8583 33.3566 18.0917 34.4987L18.922 35.056C19.7504 33.8218 20.4127 32.3929 20.9132 30.7747L19.9579 30.4792ZM18.0935 34.496C17.3383 35.6057 16.4037 36.4619 15.2881 37.0732L15.7686 37.9502C17.0293 37.2594 18.0803 36.2927 18.9202 35.0587L18.0935 34.496ZM15.2855 37.0746C14.2023 37.6764 12.8898 37.9883 11.3291 37.9883V38.9883C13.0236 38.9883 14.5106 38.6491 15.7711 37.9488L15.2855 37.0746ZM11.3291 37.9883C9.77186 37.9883 8.37745 37.6696 7.13596 37.0412L6.68435 37.9334C8.07959 38.6396 9.63113 38.9883 11.3291 38.9883V37.9883ZM7.1382 37.0423C5.90436 36.41 4.84607 35.5229 3.96154 34.3746L3.16932 34.9848C4.14026 36.2453 5.31179 37.23 6.68211 37.9323L7.1382 37.0423ZM3.96154 34.3746C3.0742 33.2226 2.38364 31.8612 1.89457 30.2836L0.939414 30.5797C1.45946 32.2573 2.20119 33.7279 3.16932 34.9848L3.96154 34.3746ZM1.89591 30.288C1.42329 28.7126 1.18457 26.9875 1.18457 25.1094H0.18457C0.18457 27.0724 0.434131 28.8955 0.938079 30.5753L1.89591 30.288ZM7.21582 24.5967V25.1094H8.21582V24.5967H7.21582ZM7.21582 25.1094C7.21582 26.2321 7.32473 27.2864 7.54531 28.2705L8.5211 28.0518C8.3185 27.1479 8.21582 26.1677 8.21582 25.1094H7.21582ZM7.54531 28.2705C7.76706 29.2598 8.1107 30.1492 8.58102 30.933L9.43851 30.4185C9.02993 29.7376 8.72253 28.9505 8.5211 28.0518L7.54531 28.2705ZM8.58793 30.9442C9.0811 31.7192 9.69599 32.3372 10.434 32.7873L10.9546 31.9335C10.3581 31.5697 9.84989 31.0647 9.4316 30.4073L8.58793 30.9442ZM10.4463 32.7945C11.2179 33.2354 12.1122 33.4463 13.1113 33.4463V32.4463C12.255 32.4463 11.538 32.2666 10.9424 31.9262L10.4463 32.7945ZM13.1113 33.4463C14.4644 33.4463 15.6183 33.1637 16.5362 32.5579L15.9853 31.7233C15.2756 32.1918 14.3299 32.4463 13.1113 32.4463V33.4463ZM16.5419 32.5541C17.44 31.9434 18.1101 31.1084 18.5522 30.0652L17.6314 29.675C17.2597 30.5524 16.7091 31.2311 15.9796 31.7272L16.5419 32.5541ZM18.5522 30.0652C18.9859 29.0416 19.2316 27.8757 19.2991 26.5757L18.3005 26.5239C18.2378 27.7304 18.0115 28.7781 17.6314 29.675L18.5522 30.0652ZM19.2998 26.5498V23.3516H18.2998V26.5498H19.2998ZM19.2996 23.3357C19.2659 22.2756 19.1225 21.312 18.8637 20.4491L17.9059 20.7364C18.1353 21.5012 18.2686 22.3767 18.3001 23.3674L19.2996 23.3357ZM18.8644 20.4517C18.6064 19.5745 18.2405 18.8103 17.7594 18.1688L16.9594 18.7687C17.3571 19.2991 17.6748 19.9509 17.9051 20.7339L18.8644 20.4517ZM17.7594 18.1688C17.2678 17.5133 16.6317 17.0065 15.8613 16.6482L15.4395 17.5549C16.0688 17.8476 16.572 18.2523 16.9594 18.7687L17.7594 18.1688ZM15.8613 16.6482C15.0813 16.2854 14.176 16.1133 13.1602 16.1133V17.1133C14.0649 17.1133 14.8198 17.2667 15.4395 17.5549L15.8613 16.6482ZM13.1602 16.1133C12.154 16.1133 11.2542 16.3436 10.48 16.8229L11.0063 17.6732C11.5993 17.3061 12.3108 17.1133 13.1602 17.1133V16.1133ZM10.4829 16.8211C9.74481 17.2712 9.12992 17.8892 8.63676 18.6642L9.48042 19.2011C9.89872 18.5437 10.4069 18.0387 11.0035 17.6749L10.4829 16.8211ZM8.63243 18.6711C8.1601 19.4408 7.80846 20.3391 7.5707 21.3581L8.54454 21.5853C8.7625 20.6512 9.07818 19.8567 9.48476 19.1941L8.63243 18.6711ZM7.57113 21.3562C7.33315 22.3591 7.21582 23.44 7.21582 24.5967H8.21582C8.21582 23.5073 8.32635 22.5048 8.54411 21.5871L7.57113 21.3562ZM38.2207 11.584H38.7207V11.084H38.2207V11.584ZM38.2207 38V38.5H38.7207V38H38.2207ZM31.165 38H30.665V38.5H31.165V38ZM31.165 11.584V11.084H30.665V11.584H31.165ZM31.7998 2.16016L31.4589 1.79435L31.7998 2.16016ZM37.5371 2.16016L37.1962 2.52598L37.2004 2.52975L37.5371 2.16016ZM37.5371 7.23828L37.2003 6.86866L37.1962 6.87248L37.5371 7.23828ZM31.7998 7.23828L31.4589 7.60409L31.7998 7.23828ZM37.7207 11.584V38H38.7207V11.584H37.7207ZM38.2207 37.5H31.165V38.5H38.2207V37.5ZM31.665 38V11.584H30.665V38H31.665ZM31.165 12.084H38.2207V11.084H31.165V12.084ZM31.2256 4.69922C31.2256 3.80513 31.5313 3.09375 32.1407 2.52596L31.4589 1.79435C30.636 2.56119 30.2256 3.54252 30.2256 4.69922H31.2256ZM32.1407 2.52596C32.7441 1.96371 33.5721 1.65918 34.6807 1.65918V0.65918C33.3804 0.65918 32.2878 1.02197 31.4589 1.79435L32.1407 2.52596ZM34.6807 1.65918C35.7708 1.65918 36.5916 1.96255 37.1962 2.52596L37.878 1.79435C37.0503 1.02313 35.9668 0.65918 34.6807 0.65918V1.65918ZM37.2004 2.52975C37.8248 3.09864 38.1357 3.80894 38.1357 4.69922H39.1357C39.1357 3.53871 38.7143 2.55631 37.8739 1.79056L37.2004 2.52975ZM38.1357 4.69922C38.1357 5.58949 37.8248 6.2998 37.2004 6.86868L37.8739 7.60788C38.7143 6.84213 39.1357 5.85973 39.1357 4.69922H38.1357ZM37.1962 6.87248C36.5916 7.43589 35.7708 7.73926 34.6807 7.73926V8.73926C35.9668 8.73926 37.0503 8.37531 37.878 7.60409L37.1962 6.87248ZM34.6807 7.73926C33.5721 7.73926 32.7441 7.43473 32.1407 6.87248L31.4589 7.60409C32.2878 8.37647 33.3804 8.73926 34.6807 8.73926V7.73926ZM32.1407 6.87248C31.5313 6.30468 31.2256 5.5933 31.2256 4.69922H30.2256C30.2256 5.85592 30.636 6.83724 31.4589 7.60409L32.1407 6.87248ZM57.4707 11.584H57.9707V11.084H57.4707V11.584ZM57.4707 16.5645V17.0645H57.9707V16.5645H57.4707ZM42.0898 16.5645H41.5898V17.0645H42.0898V16.5645ZM42.0898 11.584V11.084H41.5898V11.584H42.0898ZM45.8984 5.06543V4.56543H45.3984V5.06543H45.8984ZM52.9297 5.06543H53.4297V4.56543H52.9297V5.06543ZM53.2227 31.7988L52.7719 32.0152L52.7754 32.0224L52.779 32.0295L53.2227 31.7988ZM54.1504 32.6533L53.9647 33.1176L53.9728 33.1208L53.981 33.1238L54.1504 32.6533ZM56.8604 32.8242L56.9078 33.322L56.9179 33.321L56.9279 33.3196L56.8604 32.8242ZM57.7637 32.6777L58.2637 32.6754L58.2608 32.0684L57.6656 32.1874L57.7637 32.6777ZM57.7881 37.8535L57.9423 38.3291L58.2898 38.2164L58.2881 37.8512L57.7881 37.8535ZM55.835 38.3174L55.7546 37.8239L55.835 38.3174ZM49.4629 37.7314L49.255 38.1862L49.2628 38.1897L49.4629 37.7314ZM56.9707 11.584V16.5645H57.9707V11.584H56.9707ZM57.4707 16.0645H42.0898V17.0645H57.4707V16.0645ZM42.5898 16.5645V11.584H41.5898V16.5645H42.5898ZM42.0898 12.084H57.4707V11.084H42.0898V12.084ZM45.8984 5.56543H52.9297V4.56543H45.8984V5.56543ZM52.4297 5.06543V30.041H53.4297V5.06543H52.4297ZM52.4297 30.041C52.4297 30.8357 52.5291 31.5093 52.7719 32.0152L53.6734 31.5825C53.5256 31.2745 53.4297 30.7763 53.4297 30.041H52.4297ZM52.779 32.0295C53.0431 32.5372 53.4411 32.9081 53.9647 33.1176L54.3361 32.1891C54.0459 32.073 53.8254 31.8742 53.6663 31.5682L52.779 32.0295ZM53.981 33.1238C54.4602 33.2963 55.035 33.373 55.6885 33.373V32.373C55.105 32.373 54.6544 32.3034 54.3198 32.1829L53.981 33.1238ZM55.6885 33.373C56.1396 33.373 56.5466 33.3564 56.9078 33.322L56.8129 32.3265C56.4905 32.3572 56.1162 32.373 55.6885 32.373V33.373ZM56.9279 33.3196C57.2921 33.27 57.6041 33.2196 57.8617 33.168L57.6656 32.1874C57.435 32.2336 57.1448 32.2808 56.7928 32.3288L56.9279 33.3196ZM57.2637 32.6801L57.2881 37.8559L58.2881 37.8512L58.2637 32.6754L57.2637 32.6801ZM57.6338 37.3779C57.0584 37.5645 56.4324 37.7136 55.7546 37.8239L55.9153 38.8109C56.6373 38.6934 57.3133 38.5331 57.9423 38.3291L57.6338 37.3779ZM55.7546 37.8239C55.0858 37.9328 54.3401 37.9883 53.5156 37.9883V38.9883C54.3839 38.9883 55.1844 38.9299 55.9153 38.8109L55.7546 37.8239ZM53.5156 37.9883C52.0231 37.9883 50.7429 37.7447 49.663 37.2732L49.2628 38.1897C50.4941 38.7273 51.9157 38.9883 53.5156 38.9883V37.9883ZM49.6708 37.2767C48.6336 36.8026 47.8343 36.0503 47.2656 35.0027L46.3867 35.4798C47.055 36.7108 48.0135 37.6186 49.255 38.1862L49.6708 37.2767ZM47.2656 35.0027C46.7003 33.9614 46.3984 32.5549 46.3984 30.749H45.3984C45.3984 32.6541 45.715 34.2424 46.3867 35.4798L47.2656 35.0027ZM46.3984 30.749V5.06543H45.3984V30.749H46.3984ZM75.1826 32.5068L75.4019 32.9563L75.4106 32.9519L75.1826 32.5068ZM76.7451 31.0908L76.3224 30.8238L76.3205 30.8269L76.7451 31.0908ZM77.3555 28.918V28.418H76.8652L76.8556 28.9082L77.3555 28.918ZM83.9717 28.918L84.4717 28.9224L84.4761 28.418H83.9717V28.918ZM82.4824 33.874L82.8955 34.1557L82.897 34.1535L82.4824 33.874ZM78.5518 37.2676L78.7736 37.7157L78.7771 37.7139L78.5518 37.2676ZM67.6631 37.4629L67.4573 37.9186L67.4591 37.9194L67.6631 37.4629ZM63.8789 34.6309L63.4935 34.9494L63.4956 34.952L63.8789 34.6309ZM61.6084 30.3828L61.1308 30.5309L61.1312 30.5322L61.6084 30.3828ZM61.6084 19.2256L62.0856 19.375L62.086 19.3736L61.6084 19.2256ZM63.8789 14.9775L64.2622 15.2987L64.2643 15.2961L63.8789 14.9775ZM78.6738 12.3408L78.4467 12.7862L78.4485 12.7871L78.6738 12.3408ZM82.5312 15.9053L82.1025 16.1625L82.1057 16.1678L82.5312 15.9053ZM83.9717 21.3496V21.8496H84.4756L84.4717 21.3457L83.9717 21.3496ZM77.3555 21.3496L76.8556 21.3589L76.8646 21.8496H77.3555V21.3496ZM76.7939 18.957L76.3426 19.1724L76.3467 19.1806L76.7939 18.957ZM75.2803 17.248L75.0005 17.6625L75.0065 17.6665L75.0125 17.6703L75.2803 17.248ZM70.3486 17.248L70.6212 17.6673L70.6284 17.6625L70.3486 17.248ZM68.835 19.0059L69.2842 19.2255L69.286 19.2216L68.835 19.0059ZM68.0781 21.5205L67.584 21.4438L67.583 21.451L68.0781 21.5205ZM68.8105 30.627L68.3613 30.8466L68.3653 30.8545L68.8105 30.627ZM72.8877 33.4951C73.814 33.4951 74.656 33.32 75.4018 32.9562L74.9634 32.0575C74.3746 32.3447 73.6866 32.4951 72.8877 32.4951V33.4951ZM75.4106 32.9519C76.1538 32.5712 76.7447 32.0386 77.1698 31.3548L76.3205 30.8269C75.9968 31.3475 75.546 31.7589 74.9547 32.0618L75.4106 32.9519ZM77.1679 31.3578C77.6135 30.6523 77.8376 29.8364 77.8554 28.9278L76.8556 28.9082C76.8408 29.6597 76.658 30.2924 76.3224 30.8238L77.1679 31.3578ZM77.3555 29.418H83.9717V28.418H77.3555V29.418ZM83.4717 28.9136C83.4562 30.6774 82.9861 32.2325 82.0678 33.5945L82.897 34.1535C83.9319 32.6185 84.4546 30.8695 84.4717 28.9224L83.4717 28.9136ZM82.0693 33.5924C81.1434 34.9504 79.8996 36.0268 78.3264 36.8213L78.7771 37.7139C80.4916 36.8482 81.8683 35.6622 82.8955 34.1557L82.0693 33.5924ZM78.3299 36.8195C76.7622 37.5956 75.0002 37.9883 73.0342 37.9883V38.9883C75.1371 38.9883 77.0535 38.5672 78.7736 37.7157L78.3299 36.8195ZM73.0342 37.9883C71.0383 37.9883 69.3201 37.6556 67.8671 37.0064L67.4591 37.9194C69.0659 38.6373 70.9285 38.9883 73.0342 38.9883V37.9883ZM67.8689 37.0072C66.4197 36.3527 65.2203 35.4533 64.2622 34.3097L63.4956 34.952C64.5558 36.2173 65.8791 37.2058 67.4573 37.9186L67.8689 37.0072ZM64.2643 34.3123C63.2991 33.1447 62.5721 31.7871 62.0856 30.2334L61.1312 30.5322C61.6539 32.2012 62.4405 33.6756 63.4935 34.9494L64.2643 34.3123ZM62.086 30.2348C61.5975 28.6592 61.3516 26.9679 61.3516 25.1582H60.3516C60.3516 27.0594 60.6101 28.8512 61.1308 30.5309L62.086 30.2348ZM61.3516 25.1582V24.4502H60.3516V25.1582H61.3516ZM61.3516 24.4502C61.3516 22.6237 61.5977 20.933 62.0856 19.375L61.1312 19.0762C60.61 20.7408 60.3516 22.5332 60.3516 24.4502H61.3516ZM62.086 19.3736C62.5726 17.804 63.2991 16.4481 64.2622 15.2986L63.4956 14.6564C62.4404 15.9159 61.6534 17.392 61.1308 19.0775L62.086 19.3736ZM64.2643 15.2961C65.2224 14.1371 66.4213 13.2305 67.8689 12.5768L67.4573 11.6654C65.8776 12.3788 64.5536 13.3766 63.4935 14.659L64.2643 15.2961ZM67.8689 12.5768C69.305 11.9282 71.0062 11.5957 72.9854 11.5957V10.5957C70.8955 10.5957 69.0485 10.9468 67.4573 11.6654L67.8689 12.5768ZM72.9854 11.5957C75.0856 11.5957 76.9013 11.9981 78.4467 12.7862L78.901 11.8954C77.1912 11.0234 75.2145 10.5957 72.9854 10.5957V11.5957ZM78.4485 12.7871C80.0099 13.5756 81.2244 14.6991 82.1025 16.1625L82.96 15.648C81.9826 14.019 80.6255 12.7662 78.8992 11.8945L78.4485 12.7871ZM82.1057 16.1678C82.9942 17.6077 83.456 19.3297 83.4717 21.3535L84.4717 21.3457C84.4548 19.1703 83.9563 17.2627 82.9568 15.6427L82.1057 16.1678ZM83.9717 20.8496H77.3555V21.8496H83.9717V20.8496ZM77.8554 21.3404C77.8379 20.3943 77.6357 19.5225 77.2412 18.7334L76.3467 19.1806C76.6683 19.8238 76.8405 20.5471 76.8556 21.3589L77.8554 21.3404ZM77.2452 18.7417C76.8631 17.9411 76.2951 17.2995 75.548 16.8258L75.0125 17.6703C75.6001 18.0429 76.0412 18.5407 76.3427 19.1724L77.2452 18.7417ZM75.56 16.8336C74.8095 16.327 73.9008 16.0889 72.8633 16.0889V17.0889C73.7463 17.0889 74.4489 17.2901 75.0005 17.6625L75.56 16.8336ZM72.8633 16.0889C71.7683 16.0889 70.8244 16.3236 70.0689 16.8336L70.6284 17.6625C71.1749 17.2935 71.9075 17.0889 72.8633 17.0889V16.0889ZM70.0761 16.8288C69.3427 17.3056 68.7788 17.9644 68.3839 18.7901L69.286 19.2216C69.6073 18.5499 70.0525 18.0369 70.6211 17.6673L70.0761 16.8288ZM68.3858 18.7863C68.0022 19.5708 67.7369 20.4585 67.584 21.4438L68.5722 21.5972C68.7123 20.6945 68.9515 19.9058 69.2842 19.2255L68.3858 18.7863ZM67.583 21.451C67.4492 22.4038 67.3828 23.4037 67.3828 24.4502H68.3828C68.3828 23.4459 68.4466 22.4927 68.5733 21.59L67.583 21.451ZM67.3828 24.4502V25.1582H68.3828V24.4502H67.3828ZM67.3828 25.1582C67.3828 26.2047 67.4493 27.2123 67.5828 28.1806L68.5734 28.044C68.4466 27.1242 68.3828 26.1624 68.3828 25.1582H67.3828ZM67.5828 28.1806C67.7191 29.1685 67.9764 30.0592 68.3614 30.8466L69.2597 30.4073C68.9285 29.7299 68.6976 28.9441 68.5734 28.044L67.5828 28.1806ZM68.3653 30.8545C68.777 31.66 69.3474 32.3059 70.0761 32.7796L70.6211 31.9411C70.0478 31.5685 69.5928 31.0587 69.2558 30.3994L68.3653 30.8545ZM70.0761 32.7796C70.8316 33.2706 71.7815 33.4951 72.8877 33.4951V32.4951C71.9105 32.4951 71.1677 32.2964 70.6211 31.9411L70.0761 32.7796ZM95.5801 17.3457H96.0801V17.3277L96.0788 17.3098L95.5801 17.3457ZM95.5801 38V38.5H96.0801V38H95.5801ZM88.5488 38H88.0488V38.5H88.5488V38ZM88.5488 11.584V11.084H88.0488V11.584H88.5488ZM95.165 11.584L95.6637 11.5481L95.6303 11.084H95.165V11.584ZM103.539 11.4131L104.039 11.4224L104.046 11.069L103.715 10.9449L103.539 11.4131ZM103.417 17.9316L103.346 18.4266L103.906 18.5066L103.917 17.941L103.417 17.9316ZM102.172 17.8096L102.12 18.3069L102.13 18.3079L102.139 18.3085L102.172 17.8096ZM98.29 18.127L98.4514 18.6003L98.4575 18.5981L98.29 18.127ZM96.4834 19.2256L96.1298 18.872L96.1239 18.8781L96.4834 19.2256ZM95.4092 21.0078L94.937 20.8431L94.9337 20.853L95.4092 21.0078ZM95.0186 23.4004L94.8704 23.8779L95.4945 24.0716L95.5182 23.4186L95.0186 23.4004ZM93.6025 22.9609H93.1025V23.3293L93.4543 23.4385L93.6025 22.9609ZM94.1152 18.249L94.6016 18.3651L94.6019 18.3638L94.1152 18.249ZM95.6045 14.4648L95.1797 14.201L95.1769 14.2057L95.6045 14.4648ZM98.0459 11.9746L97.7855 11.5478L98.0459 11.9746ZM102.538 11.1934L102.459 11.6871L102.469 11.6886L102.479 11.6898L102.538 11.1934ZM95.0801 17.3457V38H96.0801V17.3457H95.0801ZM95.5801 37.5H88.5488V38.5H95.5801V37.5ZM89.0488 38V11.584H88.0488V38H89.0488ZM88.5488 12.084H95.165V11.084H88.5488V12.084ZM94.6663 11.6199L95.0814 17.3816L96.0788 17.3098L95.6637 11.5481L94.6663 11.6199ZM103.039 11.4037L102.917 17.9223L103.917 17.941L104.039 11.4224L103.039 11.4037ZM103.488 17.4367C103.13 17.3855 102.701 17.3438 102.205 17.3107L102.139 18.3085C102.619 18.3405 103.021 18.3801 103.346 18.4266L103.488 17.4367ZM102.223 17.3122C101.738 17.262 101.289 17.2363 100.878 17.2363V18.2363C101.248 18.2363 101.662 18.2595 102.12 18.3069L102.223 17.3122ZM100.878 17.2363C99.8431 17.2363 98.9213 17.3718 98.1225 17.6558L98.4575 18.5981C99.1236 18.3612 99.9271 18.2363 100.878 18.2363V17.2363ZM98.1287 17.6537C97.3472 17.9201 96.6772 18.3247 96.1298 18.872L96.837 19.5791C97.2661 19.15 97.8006 18.8221 98.4514 18.6002L98.1287 17.6537ZM96.1239 18.8781C95.5971 19.423 95.2029 20.0812 94.9371 20.8431L95.8813 21.1725C96.1038 20.5347 96.4257 20.0047 96.8429 19.5731L96.1239 18.8781ZM94.9337 20.853C94.6888 21.6054 94.5528 22.4503 94.5189 23.3822L95.5182 23.4186C95.5494 22.5601 95.6739 21.8099 95.8846 21.1626L94.9337 20.853ZM95.1668 22.9229L93.7507 22.4834L93.4543 23.4385L94.8704 23.8779L95.1668 22.9229ZM94.1025 22.9609C94.1025 21.285 94.2702 19.7539 94.6016 18.3651L93.6289 18.133C93.2767 19.6088 93.1025 21.219 93.1025 22.9609H94.1025ZM94.6019 18.3638C94.9338 16.957 95.4126 15.7461 96.0321 14.724L95.1769 14.2057C94.4943 15.332 93.9802 16.6439 93.6286 18.1342L94.6019 18.3638ZM96.0292 14.7287C96.6604 13.7126 97.4207 12.9418 98.3063 12.4014L97.7855 11.5478C96.7505 12.1793 95.8832 13.0687 95.1798 14.201L96.0292 14.7287ZM98.3063 12.4014C99.1805 11.868 100.187 11.5957 101.342 11.5957V10.5957C100.022 10.5957 98.8319 10.9093 97.7855 11.5478L98.3063 12.4014ZM101.342 11.5957C101.705 11.5957 102.077 11.6259 102.459 11.6871L102.617 10.6996C102.185 10.6306 101.76 10.5957 101.342 10.5957V11.5957ZM102.479 11.6898C102.863 11.7359 103.154 11.8025 103.364 11.8813L103.715 10.9449C103.404 10.8283 103.027 10.7485 102.598 10.6969L102.479 11.6898ZM113.512 37.5117L113.322 37.9744L113.326 37.976L113.512 37.5117ZM109.361 34.7529L109 35.0989L109.003 35.1015L109.361 34.7529ZM106.773 30.6758L106.307 30.8556L106.308 30.8572L106.773 30.6758ZM106.725 19.2256L106.252 19.0633L106.725 19.2256ZM109.166 14.9043L108.791 14.574L108.788 14.5768L109.166 14.9043ZM113.072 12.0967L113.268 12.5568L113.272 12.555L113.072 12.0967ZM126.866 14.6602L126.487 14.9856L126.489 14.9886L126.866 14.6602ZM129.112 18.7617L128.636 18.9125L128.636 18.9139L129.112 18.7617ZM129.869 26.9648V27.4648H130.369V26.9648H129.869ZM108.873 26.9648H108.373V27.4648H108.873V26.9648ZM108.873 22.2773V21.7773H108.373V22.2773H108.873ZM122.96 22.2773V22.7773H123.46V22.2773H122.96ZM122.423 19.1279L121.965 19.3284L121.97 19.3399L122.423 19.1279ZM114.146 18.9082L113.713 18.658L113.709 18.6654L114.146 18.9082ZM113.219 21.4961L112.73 21.3919L112.728 21.398L113.219 21.4961ZM113.365 28.625L112.89 28.7805L112.893 28.7883L113.365 28.625ZM114.659 30.9443L114.278 31.2682L114.283 31.2736L114.659 30.9443ZM116.71 32.458L116.505 32.9142L116.509 32.9157L116.71 32.458ZM123.009 32.2627L123.213 32.719L123.216 32.7176L123.009 32.2627ZM125.865 29.9922L126.233 29.6535L125.836 29.2226L125.473 29.6822L125.865 29.9922ZM129.283 33.7031L129.694 33.9882L129.922 33.659L129.651 33.3644L129.283 33.7031ZM127.013 35.998L126.709 35.6005L126.706 35.603L127.013 35.998ZM123.595 37.8047L123.756 38.2779L123.761 38.2761L123.595 37.8047ZM119.029 37.9883C117.031 37.9883 115.257 37.6712 113.697 37.0475L113.326 37.976C115.022 38.6543 116.926 38.9883 119.029 38.9883V37.9883ZM113.701 37.0491C112.132 36.4058 110.808 35.5234 109.72 34.4044L109.003 35.1015C110.194 36.3262 111.636 37.283 113.322 37.9743L113.701 37.0491ZM109.722 34.407C108.646 33.2836 107.818 31.9808 107.239 30.4943L106.308 30.8572C106.933 32.4633 107.831 33.8785 109 35.0989L109.722 34.407ZM107.24 30.496C106.661 28.9937 106.37 27.3947 106.37 25.6953H105.37C105.37 27.5115 105.681 29.2329 106.307 30.8556L107.24 30.496ZM106.37 25.6953V24.7188H105.37V25.6953H106.37ZM106.37 24.7188C106.37 22.7644 106.648 20.989 107.198 19.3879L106.252 19.0633C105.662 20.7825 105.37 22.6692 105.37 24.7188H106.37ZM107.198 19.3879C107.748 17.7831 108.531 16.4 109.544 15.2318L108.788 14.5768C107.685 15.85 106.84 17.3478 106.252 19.0633L107.198 19.3879ZM109.541 15.2346C110.565 14.0713 111.805 13.1792 113.268 12.5568L112.876 11.6366C111.279 12.3162 109.915 13.2958 108.791 14.574L109.541 15.2346ZM113.272 12.555C114.73 11.919 116.386 11.5957 118.248 11.5957V10.5957C116.269 10.5957 114.474 10.9397 112.872 11.6384L113.272 12.555ZM118.248 11.5957C120.065 11.5957 121.656 11.8958 123.032 12.4833L123.425 11.5636C121.904 10.9141 120.175 10.5957 118.248 10.5957V11.5957ZM123.032 12.4833C124.414 13.0732 125.562 13.9074 126.487 14.9856L127.246 14.3348C126.217 13.1342 124.94 12.2107 123.425 11.5636L123.032 12.4833ZM126.489 14.9886C127.432 16.0709 128.15 17.3759 128.636 18.9125L129.589 18.6109C129.066 16.9575 128.286 15.528 127.243 14.3317L126.489 14.9886ZM128.636 18.9139C129.122 20.436 129.369 22.1415 129.369 24.0352H130.369C130.369 22.0551 130.111 20.245 129.589 18.6095L128.636 18.9139ZM129.369 24.0352V26.9648H130.369V24.0352H129.369ZM129.869 26.4648H108.873V27.4648H129.869V26.4648ZM109.373 26.9648V22.2773H108.373V26.9648H109.373ZM108.873 22.7773H122.96V21.7773H108.873V22.7773ZM123.46 22.2773V21.7402H122.46V22.2773H123.46ZM123.46 21.7402C123.46 20.7018 123.269 19.7569 122.876 18.916L121.97 19.3399C122.293 20.0289 122.46 20.8255 122.46 21.7402H123.46ZM122.881 18.9275C122.501 18.0589 121.917 17.3636 121.133 16.8535L120.588 17.6915C121.204 18.0928 121.661 18.6345 121.965 19.3283L122.881 18.9275ZM121.133 16.8535C120.331 16.3309 119.333 16.0889 118.175 16.0889V17.0889C119.198 17.0889 119.99 17.3025 120.588 17.6915L121.133 16.8535ZM118.175 16.0889C117.173 16.0889 116.281 16.3093 115.522 16.7723L116.043 17.6261C116.618 17.2753 117.322 17.0889 118.175 17.0889V16.0889ZM115.522 16.7723C114.777 17.2263 114.175 17.8593 113.714 18.6581L114.579 19.1583C114.964 18.4922 115.452 17.9859 116.043 17.6261L115.522 16.7723ZM113.709 18.6654C113.274 19.4492 112.95 20.3604 112.73 21.3919L113.708 21.6003C113.911 20.6461 114.205 19.832 114.584 19.151L113.709 18.6654ZM112.728 21.398C112.526 22.4119 112.426 23.5196 112.426 24.7188H113.426C113.426 23.5742 113.521 22.5334 113.709 21.5942L112.728 21.398ZM112.426 24.7188V25.6953H113.426V24.7188H112.426ZM112.426 25.6953C112.426 26.7997 112.579 27.8294 112.89 28.7805L113.84 28.4695C113.566 27.6303 113.426 26.7069 113.426 25.6953H112.426ZM112.893 28.7883C113.22 29.7358 113.68 30.5649 114.278 31.2682L115.04 30.6205C114.531 30.0217 114.129 29.3045 113.838 28.4617L112.893 28.7883ZM114.283 31.2736C114.9 31.9794 115.643 32.5269 116.505 32.9141L116.915 32.0019C116.182 31.6729 115.557 31.2114 115.035 30.6151L114.283 31.2736ZM116.509 32.9157C117.395 33.3056 118.385 33.4951 119.469 33.4951V32.4951C118.502 32.4951 117.653 32.3265 116.911 32.0004L116.509 32.9157ZM119.469 33.4951C120.804 33.4951 122.054 33.2379 123.213 32.719L122.804 31.8064C121.782 32.2641 120.672 32.4951 119.469 32.4951V33.4951ZM123.216 32.7176C124.399 32.1783 125.414 31.37 126.258 30.3022L125.473 29.6822C124.722 30.6327 123.832 31.338 122.801 31.8077L123.216 32.7176ZM125.497 30.3309L128.915 34.0419L129.651 33.3644L126.233 29.6535L125.497 30.3309ZM128.872 33.4181C128.355 34.1637 127.638 34.8923 126.709 35.6005L127.316 36.3956C128.308 35.6389 129.105 34.8376 129.694 33.9882L128.872 33.4181ZM126.706 35.603C125.811 36.2973 124.721 36.8759 123.428 37.3333L123.761 38.2761C125.137 37.7895 126.326 37.1637 127.319 36.3931L126.706 35.603ZM123.433 37.3315C122.16 37.7662 120.695 37.9883 119.029 37.9883V38.9883C120.782 38.9883 122.36 38.7547 123.756 38.2779L123.433 37.3315ZM149.974 32.2383H149.474V32.2689L149.477 32.2993L149.974 32.2383ZM149.974 0.5V0H149.474V0.5H149.974ZM157.054 0.5H157.554V0H157.054V0.5ZM157.054 38V38.5H157.554V38H157.054ZM150.682 38L150.185 38.061L150.239 38.5H150.682V38ZM133.958 19.1035L134.44 19.2371L134.44 19.2359L133.958 19.1035ZM147.654 12.0723L147.409 12.5079L147.411 12.5093L147.654 12.0723ZM150.633 14.8555L150.218 15.1354L150.223 15.1418L150.633 14.8555ZM152.635 19.0791L152.157 19.2271L152.158 19.2285L152.635 19.0791ZM153.733 24.377H154.233V24.3474L154.23 24.318L153.733 24.377ZM153.733 25.5L154.23 25.5615L154.233 25.5309V25.5H153.733ZM150.633 34.7773L150.223 34.491L150.222 34.4921L150.633 34.7773ZM139.158 37.4873L138.926 37.9299L138.928 37.9311L139.158 37.4873ZM135.936 34.6797L135.529 34.9708L135.532 34.9744L135.936 34.6797ZM133.958 30.4316L133.477 30.5665L133.958 30.4316ZM140.55 28.1611L140.057 28.2461L140.059 28.2543L140.55 28.1611ZM141.404 30.6758L140.963 30.9112L140.97 30.9228L141.404 30.6758ZM142.967 32.3604L142.697 32.7813L142.703 32.7853L142.71 32.7891L142.967 32.3604ZM148.313 32.1406L148.597 32.5527L148.602 32.5486L148.313 32.1406ZM150.096 29.8701L149.638 29.6685L149.635 29.675L150.096 29.8701ZM150.828 26.5498L151.327 26.5757L151.328 26.5628V26.5498H150.828ZM150.828 23.3516H151.328V23.3397L151.328 23.3278L150.828 23.3516ZM150.389 20.5928L149.906 20.7252L149.91 20.7364L150.389 20.5928ZM149.363 18.4688L148.963 18.7688L148.969 18.7757L149.363 18.4688ZM147.703 17.1016L147.48 17.5488L147.484 17.5509L147.703 17.1016ZM143.04 17.248L143.305 17.6721L143.313 17.6673L143.04 17.248ZM141.453 18.9326L141.018 18.6856L141.014 18.6932L141.453 18.9326ZM140.574 21.4717L140.084 21.3736L140.083 21.38L140.574 21.4717ZM150.474 32.2383V0.5H149.474V32.2383H150.474ZM149.974 1H157.054V0H149.974V1ZM156.554 0.5V38H157.554V0.5H156.554ZM157.054 37.5H150.682V38.5H157.054V37.5ZM151.178 37.939L150.47 32.1773L149.477 32.2993L150.185 38.061L151.178 37.939ZM133.774 25.1094V24.5967H132.774V25.1094H133.774ZM133.774 24.5967C133.774 22.6156 133.998 20.8304 134.44 19.2371L133.476 18.9699C133.006 20.6644 132.774 22.5413 132.774 24.5967H133.774ZM134.44 19.2359C134.882 17.6255 135.525 16.2595 136.362 15.1284L135.558 14.5337C134.637 15.7789 133.945 17.2612 133.476 18.9712L134.44 19.2359ZM136.362 15.1284C137.196 14.0012 138.218 13.1333 139.433 12.5183L138.981 11.6262C137.624 12.3133 136.482 13.2846 135.558 14.5337L136.362 15.1284ZM139.433 12.5183C140.639 11.9074 142.025 11.5957 143.602 11.5957V10.5957C141.89 10.5957 140.346 10.935 138.981 11.6262L139.433 12.5183ZM143.602 11.5957C145.076 11.5957 146.34 11.9056 147.409 12.5079L147.9 11.6366C146.658 10.9369 145.219 10.5957 143.602 10.5957V11.5957ZM147.411 12.5093C148.509 13.1191 149.445 13.9905 150.219 15.1354L151.047 14.5755C150.193 13.3116 149.143 12.3276 147.897 11.6352L147.411 12.5093ZM150.223 15.1418C151.019 16.281 151.665 17.6404 152.157 19.2271L153.112 18.9311C152.595 17.2626 151.907 15.8063 151.043 14.5691L150.223 15.1418ZM152.158 19.2285C152.652 20.8064 153.012 22.5417 153.237 24.4359L154.23 24.318C153.999 22.3711 153.627 20.5744 153.112 18.9297L152.158 19.2285ZM153.233 24.377V25.5H154.233V24.377H153.233ZM153.237 25.4385C153.013 27.2505 152.653 28.9288 152.158 30.4747L153.111 30.7792C153.626 29.1676 153.998 27.4279 154.23 25.5615L153.237 25.4385ZM152.158 30.4747C151.667 32.0125 151.02 33.3494 150.223 34.491L151.043 35.0637C151.905 33.829 152.593 32.399 153.111 30.7792L152.158 30.4747ZM150.222 34.4921C149.449 35.6054 148.512 36.4631 147.411 37.0746L147.897 37.9488C149.14 37.2583 150.189 36.2931 151.044 35.0625L150.222 34.4921ZM147.411 37.0746C146.325 37.678 145.044 37.9883 143.553 37.9883V38.9883C145.186 38.9883 146.639 38.6475 147.897 37.9488L147.411 37.0746ZM143.553 37.9883C141.978 37.9883 140.594 37.6692 139.389 37.0435L138.928 37.9311C140.294 38.6401 141.84 38.9883 143.553 38.9883V37.9883ZM139.391 37.0447C138.192 36.4144 137.175 35.5302 136.339 34.385L135.532 34.9744C136.454 36.2381 137.586 37.2256 138.926 37.9299L139.391 37.0447ZM136.342 34.3885C135.518 33.2376 134.882 31.8762 134.439 30.2968L133.477 30.5665C133.946 32.2423 134.628 33.7129 135.529 34.9708L136.342 34.3885ZM134.439 30.2968C133.998 28.7186 133.774 26.9905 133.774 25.1094H132.774C132.774 27.0694 133.007 28.8895 133.477 30.5665L134.439 30.2968ZM139.806 24.5967V25.1094H140.806V24.5967H139.806ZM139.806 25.1094C139.806 26.2245 139.889 27.2705 140.057 28.2461L141.043 28.0762C140.885 27.1638 140.806 26.1752 140.806 25.1094H139.806ZM140.059 28.2543C140.246 29.2403 140.545 30.1277 140.963 30.9111L141.845 30.4405C141.482 29.759 141.212 28.97 141.041 28.068L140.059 28.2543ZM140.97 30.9228C141.413 31.7028 141.988 32.3267 142.697 32.7813L143.237 31.9394C142.676 31.5802 142.21 31.0811 141.839 30.4288L140.97 30.9228ZM142.71 32.7891C143.454 33.2357 144.337 33.4463 145.335 33.4463V32.4463C144.478 32.4463 143.782 32.2663 143.224 31.9316L142.71 32.7891ZM145.335 33.4463C146.613 33.4463 147.712 33.1608 148.597 32.5526L148.03 31.7286C147.352 32.1947 146.466 32.4463 145.335 32.4463V33.4463ZM148.602 32.5486C149.466 31.9368 150.116 31.1031 150.556 30.0652L149.635 29.675C149.261 30.5577 148.723 31.2377 148.024 31.7326L148.602 32.5486ZM150.553 30.0717C151.005 29.0462 151.26 27.878 151.327 26.5757L150.329 26.5239C150.266 27.7281 150.033 28.7734 149.638 29.6685L150.553 30.0717ZM151.328 26.5498V23.3516H150.328V26.5498H151.328ZM151.328 23.3278C151.277 22.2699 151.126 21.309 150.868 20.4491L149.91 20.7364C150.14 21.5042 150.281 22.3825 150.329 23.3753L151.328 23.3278ZM150.871 20.4604C150.628 19.577 150.26 18.8072 149.758 18.1618L148.969 18.7757C149.378 19.3022 149.693 19.9484 149.907 20.7251L150.871 20.4604ZM149.763 18.1688C149.276 17.5185 148.66 17.012 147.922 16.6522L147.484 17.5509C148.081 17.8422 148.572 18.2471 148.963 18.7687L149.763 18.1688ZM147.927 16.6544C147.192 16.287 146.339 16.1133 145.384 16.1133V17.1133C146.219 17.1133 146.912 17.265 147.48 17.5488L147.927 16.6544ZM145.384 16.1133C144.393 16.1133 143.513 16.3443 142.768 16.8288L143.313 17.6673C143.869 17.3054 144.552 17.1133 145.384 17.1133V16.1133ZM142.775 16.824C142.049 17.2781 141.463 17.9027 141.018 18.6856L141.888 19.1796C142.257 18.5302 142.729 18.0318 143.305 17.672L142.775 16.824ZM141.014 18.6932C140.595 19.4621 140.287 20.3581 140.084 21.3736L141.065 21.5697C141.252 20.6321 141.53 19.8354 141.892 19.172L141.014 18.6932ZM140.083 21.38C139.897 22.3746 139.806 23.4473 139.806 24.5967H140.806C140.806 23.4999 140.893 22.4893 141.066 21.5633L140.083 21.38ZM170.469 11.584H170.969V11.084H170.469V11.584ZM170.469 38V38.5H170.969V38H170.469ZM163.413 38H162.913V38.5H163.413V38ZM163.413 11.584V11.084H162.913V11.584H163.413ZM164.048 2.16016L163.707 1.79435L164.048 2.16016ZM169.785 2.16016L169.444 2.52598L169.448 2.52975L169.785 2.16016ZM169.785 7.23828L169.448 6.86866L169.444 6.87248L169.785 7.23828ZM164.048 7.23828L163.707 7.60409L164.048 7.23828ZM169.969 11.584V38H170.969V11.584H169.969ZM170.469 37.5H163.413V38.5H170.469V37.5ZM163.913 38V11.584H162.913V38H163.913ZM163.413 12.084H170.469V11.084H163.413V12.084ZM163.474 4.69922C163.474 3.80513 163.779 3.09375 164.389 2.52596L163.707 1.79435C162.884 2.56119 162.474 3.54252 162.474 4.69922H163.474ZM164.389 2.52596C164.992 1.96371 165.82 1.65918 166.929 1.65918V0.65918C165.628 0.65918 164.536 1.02197 163.707 1.79435L164.389 2.52596ZM166.929 1.65918C168.019 1.65918 168.84 1.96255 169.444 2.52596L170.126 1.79435C169.298 1.02313 168.215 0.65918 166.929 0.65918V1.65918ZM169.448 2.52975C170.073 3.09864 170.384 3.80894 170.384 4.69922H171.384C171.384 3.53871 170.962 2.55631 170.122 1.79056L169.448 2.52975ZM170.384 4.69922C170.384 5.58949 170.073 6.2998 169.448 6.86868L170.122 7.60788C170.962 6.84213 171.384 5.85973 171.384 4.69922H170.384ZM169.444 6.87248C168.84 7.43589 168.019 7.73926 166.929 7.73926V8.73926C168.215 8.73926 169.298 8.37531 170.126 7.60409L169.444 6.87248ZM166.929 7.73926C165.82 7.73926 164.992 7.43473 164.389 6.87248L163.707 7.60409C164.536 8.37647 165.628 8.73926 166.929 8.73926V7.73926ZM164.389 6.87248C163.779 6.30468 163.474 5.5933 163.474 4.69922H162.474C162.474 5.85592 162.884 6.83724 163.707 7.60409L164.389 6.87248ZM189.719 11.584H190.219V11.084H189.719V11.584ZM189.719 16.5645V17.0645H190.219V16.5645H189.719ZM174.338 16.5645H173.838V17.0645H174.338V16.5645ZM174.338 11.584V11.084H173.838V11.584H174.338ZM178.146 5.06543V4.56543H177.646V5.06543H178.146ZM185.178 5.06543H185.678V4.56543H185.178V5.06543ZM185.471 31.7988L185.02 32.0152L185.023 32.0224L185.027 32.0295L185.471 31.7988ZM186.398 32.6533L186.213 33.1176L186.221 33.1208L186.229 33.1238L186.398 32.6533ZM189.108 32.8242L189.156 33.322L189.166 33.321L189.176 33.3196L189.108 32.8242ZM190.012 32.6777L190.512 32.6754L190.509 32.0684L189.914 32.1874L190.012 32.6777ZM190.036 37.8535L190.19 38.3291L190.538 38.2164L190.536 37.8512L190.036 37.8535ZM188.083 38.3174L188.003 37.8239L188.083 38.3174ZM181.711 37.7314L181.503 38.1862L181.511 38.1897L181.711 37.7314ZM189.219 11.584V16.5645H190.219V11.584H189.219ZM189.719 16.0645H174.338V17.0645H189.719V16.0645ZM174.838 16.5645V11.584H173.838V16.5645H174.838ZM174.338 12.084H189.719V11.084H174.338V12.084ZM178.146 5.56543H185.178V4.56543H178.146V5.56543ZM184.678 5.06543V30.041H185.678V5.06543H184.678ZM184.678 30.041C184.678 30.8357 184.777 31.5093 185.02 32.0152L185.921 31.5825C185.774 31.2745 185.678 30.7763 185.678 30.041H184.678ZM185.027 32.0295C185.291 32.5372 185.689 32.9081 186.213 33.1176L186.584 32.1891C186.294 32.073 186.073 31.8742 185.914 31.5682L185.027 32.0295ZM186.229 33.1238C186.708 33.2963 187.283 33.373 187.937 33.373V32.373C187.353 32.373 186.902 32.3034 186.568 32.1829L186.229 33.1238ZM187.937 33.373C188.388 33.373 188.795 33.3564 189.156 33.322L189.061 32.3265C188.739 32.3572 188.364 32.373 187.937 32.373V33.373ZM189.176 33.3196C189.54 33.27 189.852 33.2196 190.11 33.168L189.914 32.1874C189.683 32.2336 189.393 32.2808 189.041 32.3288L189.176 33.3196ZM189.512 32.6801L189.536 37.8559L190.536 37.8512L190.512 32.6754L189.512 32.6801ZM189.882 37.3779C189.306 37.5645 188.68 37.7136 188.003 37.8239L188.163 38.8109C188.885 38.6934 189.561 38.5331 190.19 38.3291L189.882 37.3779ZM188.003 37.8239C187.334 37.9328 186.588 37.9883 185.764 37.9883V38.9883C186.632 38.9883 187.432 38.9299 188.163 38.8109L188.003 37.8239ZM185.764 37.9883C184.271 37.9883 182.991 37.7447 181.911 37.2732L181.511 38.1897C182.742 38.7273 184.164 38.9883 185.764 38.9883V37.9883ZM181.919 37.2767C180.882 36.8026 180.082 36.0503 179.514 35.0027L178.635 35.4798C179.303 36.7108 180.262 37.6186 181.503 38.1862L181.919 37.2767ZM179.514 35.0027C178.948 33.9614 178.646 32.5549 178.646 30.749H177.646C177.646 32.6541 177.963 34.2424 178.635 35.4798L179.514 35.0027ZM178.646 30.749V5.06543H177.646V30.749H178.646Z" fill="white"/>
</svg>
